<mxfile host="app.diagrams.net" modified="2022-12-11T13:48:30.231Z" agent="5.0 (Windows NT 10.0; Win64; x64) AppleWebKit/537.36 (KHTML, like Gecko) Chrome/108.0.0.0 Safari/537.36" version="20.6.2" etag="IdG44Zy_eXDvkDDmWSY0" type="github">
  <diagram id="MdTIQyyJ0vm53EiqNy7y" name="StrÃ¡nka-1">
    <mxGraphModel dx="1674" dy="936" grid="1" gridSize="10" guides="1" tooltips="1" connect="1" arrows="1" fold="1" page="1" pageScale="1" pageWidth="827" pageHeight="1169" math="0" shadow="0">
      <root>
        <mxCell id="0" />
        <mxCell id="1" parent="0" />
        <mxCell id="dtreTRoyzWoGX0LGxbuo-3" style="edgeStyle=orthogonalEdgeStyle;rounded=0;orthogonalLoop=1;jettySize=auto;html=1;entryX=0;entryY=0.5;entryDx=0;entryDy=0;" edge="1" parent="1" source="dtreTRoyzWoGX0LGxbuo-1" target="dtreTRoyzWoGX0LGxbuo-2">
          <mxGeometry relative="1" as="geometry" />
        </mxCell>
        <mxCell id="dtreTRoyzWoGX0LGxbuo-1" value="" style="ellipse;whiteSpace=wrap;html=1;aspect=fixed;fillColor=#000000;" vertex="1" parent="1">
          <mxGeometry x="160" y="150" width="30" height="30" as="geometry" />
        </mxCell>
        <mxCell id="dtreTRoyzWoGX0LGxbuo-2" value="" style="rounded=1;whiteSpace=wrap;html=1;fillColor=#FFFFFF;" vertex="1" parent="1">
          <mxGeometry x="290" y="132.5" width="190" height="65" as="geometry" />
        </mxCell>
      </root>
    </mxGraphModel>
  </diagram>
</mxfile>
